<mxfile host="app.diagrams.net" modified="2024-03-31T20:08:42.586Z" agent="Mozilla/5.0 (Windows NT 10.0; Win64; x64; rv:124.0) Gecko/20100101 Firefox/124.0" etag="aD87Zx7bDEgitQdSRjn_" version="24.2.0" type="device">
  <diagram name="Page-1" id="QqyrLTc3P1CVoOEtoPtD">
    <mxGraphModel dx="1247" dy="673" grid="1" gridSize="10" guides="1" tooltips="1" connect="1" arrows="1" fold="1" page="1" pageScale="1" pageWidth="850" pageHeight="1100" math="0" shadow="0">
      <root>
        <mxCell id="0" />
        <mxCell id="1" parent="0" />
        <mxCell id="HTeXjlO_lmvwwzUXaFAd-1" value="&lt;div style=&quot;font-size: 12px;&quot;&gt;&lt;h1&gt;&lt;span style=&quot;font-size: 12px;&quot;&gt;Projet Données et modélisation&lt;/span&gt;&lt;/h1&gt;&lt;/div&gt;" style="rounded=0;whiteSpace=wrap;html=1;fontStyle=1;fontSize=13;" parent="1" vertex="1">
          <mxGeometry x="880" y="160" width="120" height="60" as="geometry" />
        </mxCell>
        <mxCell id="HTeXjlO_lmvwwzUXaFAd-7" value="" style="edgeStyle=orthogonalEdgeStyle;rounded=0;orthogonalLoop=1;jettySize=auto;html=1;fontStyle=1;fontSize=13;" parent="1" source="HTeXjlO_lmvwwzUXaFAd-2" edge="1">
          <mxGeometry relative="1" as="geometry">
            <mxPoint x="280" y="500" as="targetPoint" />
          </mxGeometry>
        </mxCell>
        <mxCell id="HTeXjlO_lmvwwzUXaFAd-2" value="Organisation du groupe de travail" style="whiteSpace=wrap;html=1;rounded=0;fontStyle=1;fontSize=13;" parent="1" vertex="1">
          <mxGeometry x="220" y="290" width="120" height="60" as="geometry" />
        </mxCell>
        <mxCell id="HTeXjlO_lmvwwzUXaFAd-4" value="&lt;div style=&quot;font-size: 13px;&quot;&gt;Phase de conception &lt;br style=&quot;font-size: 13px;&quot;&gt;&lt;/div&gt;" style="whiteSpace=wrap;html=1;rounded=0;fontStyle=1;fontSize=13;" parent="1" vertex="1">
          <mxGeometry x="660" y="290" width="120" height="60" as="geometry" />
        </mxCell>
        <mxCell id="HTeXjlO_lmvwwzUXaFAd-38" value="" style="edgeStyle=orthogonalEdgeStyle;rounded=0;orthogonalLoop=1;jettySize=auto;html=1;fontStyle=1;fontSize=13;" parent="1" source="HTeXjlO_lmvwwzUXaFAd-5" edge="1">
          <mxGeometry relative="1" as="geometry">
            <mxPoint x="1160" y="470" as="targetPoint" />
          </mxGeometry>
        </mxCell>
        <mxCell id="HTeXjlO_lmvwwzUXaFAd-5" value="&lt;br style=&quot;font-size: 13px;&quot;&gt;Phase de réalisation &lt;div style=&quot;font-size: 13px;&quot;&gt;&lt;br style=&quot;font-size: 13px;&quot;&gt;&lt;/div&gt;" style="whiteSpace=wrap;html=1;rounded=0;fontStyle=1;fontSize=13;" parent="1" vertex="1">
          <mxGeometry x="1100" y="290" width="120" height="60" as="geometry" />
        </mxCell>
        <mxCell id="HTeXjlO_lmvwwzUXaFAd-8" value="&lt;div&gt;&lt;br&gt;&lt;/div&gt;&lt;div&gt;&lt;b&gt;&lt;font style=&quot;font-size: 13px;&quot;&gt;Réunion de l&#39;équipe pour comprendre le cahier des charges.&lt;/font&gt;&lt;/b&gt;&lt;/div&gt;&lt;div&gt;&lt;br&gt;&lt;/div&gt;" style="whiteSpace=wrap;html=1;rounded=0;" parent="1" vertex="1">
          <mxGeometry x="80" y="470" width="120" height="90" as="geometry" />
        </mxCell>
        <mxCell id="HTeXjlO_lmvwwzUXaFAd-10" value="composition de l&#39;équipe de project" style="whiteSpace=wrap;html=1;rounded=0;fontStyle=1;fontSize=13;" parent="1" vertex="1">
          <mxGeometry x="220" y="470" width="120" height="90" as="geometry" />
        </mxCell>
        <mxCell id="HTeXjlO_lmvwwzUXaFAd-12" value="planification des étapes du project et attribution des responsabilités " style="rounded=0;whiteSpace=wrap;html=1;fontStyle=1;fontSize=13;" parent="1" vertex="1">
          <mxGeometry x="350" y="470" width="120" height="90" as="geometry" />
        </mxCell>
        <mxCell id="HTeXjlO_lmvwwzUXaFAd-14" value="" style="endArrow=none;html=1;rounded=0;" parent="1" edge="1">
          <mxGeometry width="50" height="50" relative="1" as="geometry">
            <mxPoint x="100" y="450" as="sourcePoint" />
            <mxPoint x="460" y="450" as="targetPoint" />
          </mxGeometry>
        </mxCell>
        <mxCell id="HTeXjlO_lmvwwzUXaFAd-16" value="" style="endArrow=classic;html=1;rounded=0;" parent="1" edge="1">
          <mxGeometry width="50" height="50" relative="1" as="geometry">
            <mxPoint x="100" y="450" as="sourcePoint" />
            <mxPoint x="100" y="471" as="targetPoint" />
            <Array as="points">
              <mxPoint x="100" y="460" />
            </Array>
          </mxGeometry>
        </mxCell>
        <mxCell id="HTeXjlO_lmvwwzUXaFAd-17" value="" style="endArrow=classic;html=1;rounded=0;fontStyle=1;fontSize=13;" parent="1" edge="1">
          <mxGeometry width="50" height="50" relative="1" as="geometry">
            <mxPoint x="460" y="450" as="sourcePoint" />
            <mxPoint x="460" y="470" as="targetPoint" />
            <Array as="points">
              <mxPoint x="460" y="460" />
            </Array>
          </mxGeometry>
        </mxCell>
        <mxCell id="HTeXjlO_lmvwwzUXaFAd-23" value="elaboration du modele conceptuel de donnees MCD avec looping MCD" style="rounded=0;whiteSpace=wrap;html=1;fontStyle=1;fontSize=13;" parent="1" vertex="1">
          <mxGeometry x="660" y="470" width="120" height="90" as="geometry" />
        </mxCell>
        <mxCell id="HTeXjlO_lmvwwzUXaFAd-24" value="Définition des droits d&#39;accés pour les utilisateurs" style="rounded=0;whiteSpace=wrap;html=1;fontStyle=1;fontSize=13;" parent="1" vertex="1">
          <mxGeometry x="790" y="470" width="120" height="90" as="geometry" />
        </mxCell>
        <mxCell id="HTeXjlO_lmvwwzUXaFAd-25" value="&lt;br style=&quot;font-size: 13px;&quot;&gt;Définition des &lt;br style=&quot;font-size: 13px;&quot;&gt;&lt;div style=&quot;font-size: 13px;&quot;&gt;contraintes d&#39;intégrite de la base de donnes&lt;/div&gt;&lt;div style=&quot;font-size: 13px;&quot;&gt;&lt;br style=&quot;font-size: 13px;&quot;&gt;&lt;/div&gt;" style="rounded=0;whiteSpace=wrap;html=1;fontStyle=1;fontSize=13;" parent="1" vertex="1">
          <mxGeometry x="530" y="470" width="120" height="90" as="geometry" />
        </mxCell>
        <mxCell id="HTeXjlO_lmvwwzUXaFAd-28" value="" style="endArrow=classic;html=1;rounded=0;fontStyle=1;fontSize=13;" parent="1" target="HTeXjlO_lmvwwzUXaFAd-10" edge="1">
          <mxGeometry width="50" height="50" relative="1" as="geometry">
            <mxPoint x="280" y="450" as="sourcePoint" />
            <mxPoint x="630" y="330" as="targetPoint" />
          </mxGeometry>
        </mxCell>
        <mxCell id="HTeXjlO_lmvwwzUXaFAd-29" value="" style="endArrow=none;html=1;rounded=0;fontStyle=1;fontSize=13;" parent="1" edge="1">
          <mxGeometry width="50" height="50" relative="1" as="geometry">
            <mxPoint x="540" y="449.5" as="sourcePoint" />
            <mxPoint x="900" y="449.5" as="targetPoint" />
          </mxGeometry>
        </mxCell>
        <mxCell id="HTeXjlO_lmvwwzUXaFAd-31" value="" style="endArrow=classic;html=1;rounded=0;fontStyle=1;fontSize=13;" parent="1" edge="1">
          <mxGeometry width="50" height="50" relative="1" as="geometry">
            <mxPoint x="540" y="450" as="sourcePoint" />
            <mxPoint x="540" y="470" as="targetPoint" />
          </mxGeometry>
        </mxCell>
        <mxCell id="HTeXjlO_lmvwwzUXaFAd-32" value="" style="endArrow=classic;html=1;rounded=0;entryX=0.917;entryY=0;entryDx=0;entryDy=0;entryPerimeter=0;fontStyle=1;fontSize=13;" parent="1" target="HTeXjlO_lmvwwzUXaFAd-24" edge="1">
          <mxGeometry width="50" height="50" relative="1" as="geometry">
            <mxPoint x="900" y="450" as="sourcePoint" />
            <mxPoint x="930" y="471" as="targetPoint" />
          </mxGeometry>
        </mxCell>
        <mxCell id="HTeXjlO_lmvwwzUXaFAd-36" value="" style="endArrow=classic;html=1;rounded=0;exitX=0.5;exitY=1;exitDx=0;exitDy=0;entryX=0.5;entryY=0;entryDx=0;entryDy=0;fontStyle=1;fontSize=13;" parent="1" source="HTeXjlO_lmvwwzUXaFAd-4" edge="1" target="HTeXjlO_lmvwwzUXaFAd-23">
          <mxGeometry width="50" height="50" relative="1" as="geometry">
            <mxPoint x="720" y="420" as="sourcePoint" />
            <mxPoint x="720" y="450" as="targetPoint" />
          </mxGeometry>
        </mxCell>
        <mxCell id="FvPo2etpDXz-omJSAiim-2" value="Ecriture du code SQL pour la creation de la base de donnees " style="rounded=0;whiteSpace=wrap;html=1;fontStyle=1;fontSize=13;" parent="1" vertex="1">
          <mxGeometry x="970" y="470" width="120" height="90" as="geometry" />
        </mxCell>
        <mxCell id="FvPo2etpDXz-omJSAiim-3" value="implémentation de fonctionnalité et requêtes" style="rounded=0;whiteSpace=wrap;html=1;fontStyle=1;fontSize=13;" parent="1" vertex="1">
          <mxGeometry x="1100" y="470" width="120" height="90" as="geometry" />
        </mxCell>
        <mxCell id="FvPo2etpDXz-omJSAiim-4" value="" style="endArrow=none;html=1;rounded=0;fontStyle=1;fontSize=13;" parent="1" edge="1">
          <mxGeometry width="50" height="50" relative="1" as="geometry">
            <mxPoint x="980" y="450" as="sourcePoint" />
            <mxPoint x="1350" y="450" as="targetPoint" />
          </mxGeometry>
        </mxCell>
        <mxCell id="FvPo2etpDXz-omJSAiim-1" value="&lt;div style=&quot;font-size: 13px;&quot;&gt;Peuplement de la base de donnees &lt;/div&gt;" style="rounded=0;whiteSpace=wrap;html=1;fontStyle=1;fontSize=13;" parent="1" vertex="1">
          <mxGeometry x="1230" y="470" width="120" height="90" as="geometry" />
        </mxCell>
        <mxCell id="FvPo2etpDXz-omJSAiim-9" value="" style="endArrow=classic;html=1;rounded=0;fontStyle=1;fontSize=13;" parent="1" edge="1">
          <mxGeometry width="50" height="50" relative="1" as="geometry">
            <mxPoint x="1160" y="450" as="sourcePoint" />
            <mxPoint x="1160" y="450" as="targetPoint" />
          </mxGeometry>
        </mxCell>
        <mxCell id="FvPo2etpDXz-omJSAiim-11" value="" style="endArrow=none;html=1;rounded=0;fontStyle=1;fontSize=13;" parent="1" edge="1">
          <mxGeometry width="50" height="50" relative="1" as="geometry">
            <mxPoint x="280" y="270" as="sourcePoint" />
            <mxPoint x="1160" y="270" as="targetPoint" />
          </mxGeometry>
        </mxCell>
        <mxCell id="FvPo2etpDXz-omJSAiim-12" value="" style="endArrow=classic;html=1;rounded=0;fontStyle=1;fontSize=13;" parent="1" target="HTeXjlO_lmvwwzUXaFAd-2" edge="1">
          <mxGeometry width="50" height="50" relative="1" as="geometry">
            <mxPoint x="280" y="270" as="sourcePoint" />
            <mxPoint x="700" y="310" as="targetPoint" />
          </mxGeometry>
        </mxCell>
        <mxCell id="FvPo2etpDXz-omJSAiim-13" value="" style="endArrow=classic;html=1;rounded=0;fontStyle=1;fontSize=13;" parent="1" target="HTeXjlO_lmvwwzUXaFAd-4" edge="1">
          <mxGeometry width="50" height="50" relative="1" as="geometry">
            <mxPoint x="720" y="270" as="sourcePoint" />
            <mxPoint x="700" y="310" as="targetPoint" />
          </mxGeometry>
        </mxCell>
        <mxCell id="FvPo2etpDXz-omJSAiim-14" value="" style="endArrow=classic;html=1;rounded=0;fontStyle=1;fontSize=13;" parent="1" target="HTeXjlO_lmvwwzUXaFAd-5" edge="1">
          <mxGeometry width="50" height="50" relative="1" as="geometry">
            <mxPoint x="1160" y="270" as="sourcePoint" />
            <mxPoint x="700" y="310" as="targetPoint" />
          </mxGeometry>
        </mxCell>
        <mxCell id="FvPo2etpDXz-omJSAiim-15" value="" style="endArrow=classic;html=1;rounded=0;exitX=0.5;exitY=1;exitDx=0;exitDy=0;fontStyle=1;fontSize=13;" parent="1" source="HTeXjlO_lmvwwzUXaFAd-1" edge="1">
          <mxGeometry width="50" height="50" relative="1" as="geometry">
            <mxPoint x="1065" y="330" as="sourcePoint" />
            <mxPoint x="940" y="270" as="targetPoint" />
          </mxGeometry>
        </mxCell>
        <mxCell id="FvPo2etpDXz-omJSAiim-18" value="" style="edgeStyle=orthogonalEdgeStyle;rounded=0;orthogonalLoop=1;jettySize=auto;html=1;fontStyle=1;fontSize=13;" parent="1" source="FvPo2etpDXz-omJSAiim-16" edge="1">
          <mxGeometry relative="1" as="geometry">
            <mxPoint x="1600" y="500" as="targetPoint" />
          </mxGeometry>
        </mxCell>
        <mxCell id="FvPo2etpDXz-omJSAiim-16" value="Presentation " style="rounded=0;whiteSpace=wrap;html=1;fontStyle=1;fontSize=13;" parent="1" vertex="1">
          <mxGeometry x="1540" y="290" width="120" height="60" as="geometry" />
        </mxCell>
        <mxCell id="FvPo2etpDXz-omJSAiim-19" value="Un support powerpoint " style="whiteSpace=wrap;html=1;rounded=0;fontStyle=1;fontSize=13;" parent="1" vertex="1">
          <mxGeometry x="1410" y="470" width="120" height="90" as="geometry" />
        </mxCell>
        <mxCell id="FvPo2etpDXz-omJSAiim-22" value="Repondre aux question " style="rounded=0;whiteSpace=wrap;html=1;fontStyle=1;fontSize=13;" parent="1" vertex="1">
          <mxGeometry x="1540" y="470" width="120" height="90" as="geometry" />
        </mxCell>
        <mxCell id="FvPo2etpDXz-omJSAiim-23" value="Clôture du projet et évaluation des performances." style="rounded=0;whiteSpace=wrap;html=1;fontStyle=1;fontSize=13;" parent="1" vertex="1">
          <mxGeometry x="1670" y="470" width="120" height="90" as="geometry" />
        </mxCell>
        <mxCell id="FvPo2etpDXz-omJSAiim-24" value="" style="endArrow=none;html=1;rounded=0;fontStyle=1;fontSize=13;" parent="1" edge="1">
          <mxGeometry width="50" height="50" relative="1" as="geometry">
            <mxPoint x="1780" y="450" as="sourcePoint" />
            <mxPoint x="1420" y="450" as="targetPoint" />
          </mxGeometry>
        </mxCell>
        <mxCell id="FvPo2etpDXz-omJSAiim-29" value="" style="endArrow=classic;html=1;rounded=0;entryX=0.5;entryY=0;entryDx=0;entryDy=0;fontStyle=1;fontSize=13;" parent="1" target="FvPo2etpDXz-omJSAiim-22" edge="1">
          <mxGeometry width="50" height="50" relative="1" as="geometry">
            <mxPoint x="1600" y="450" as="sourcePoint" />
            <mxPoint x="1650" y="400" as="targetPoint" />
          </mxGeometry>
        </mxCell>
        <mxCell id="FvPo2etpDXz-omJSAiim-30" value="" style="endArrow=classic;html=1;rounded=0;entryX=0.923;entryY=0.02;entryDx=0;entryDy=0;entryPerimeter=0;fontStyle=1;fontSize=13;" parent="1" target="FvPo2etpDXz-omJSAiim-23" edge="1">
          <mxGeometry width="50" height="50" relative="1" as="geometry">
            <mxPoint x="1780" y="450" as="sourcePoint" />
            <mxPoint x="1830" y="400" as="targetPoint" />
          </mxGeometry>
        </mxCell>
        <mxCell id="FvPo2etpDXz-omJSAiim-32" value="" style="endArrow=none;html=1;rounded=0;fontStyle=1;fontSize=13;" parent="1" edge="1">
          <mxGeometry width="50" height="50" relative="1" as="geometry">
            <mxPoint x="1600" y="270" as="sourcePoint" />
            <mxPoint x="1159" y="270" as="targetPoint" />
          </mxGeometry>
        </mxCell>
        <mxCell id="FvPo2etpDXz-omJSAiim-34" value="" style="endArrow=classic;html=1;rounded=0;entryX=0.5;entryY=0;entryDx=0;entryDy=0;fontStyle=1;fontSize=13;" parent="1" target="FvPo2etpDXz-omJSAiim-16" edge="1">
          <mxGeometry width="50" height="50" relative="1" as="geometry">
            <mxPoint x="1600" y="270" as="sourcePoint" />
            <mxPoint x="1540" y="230" as="targetPoint" />
            <Array as="points">
              <mxPoint x="1600" y="280" />
            </Array>
          </mxGeometry>
        </mxCell>
        <mxCell id="0heG7W7SyOvzn9v00CN0-1" value="" style="endArrow=classic;html=1;rounded=0;fontStyle=1;fontSize=13;" edge="1" parent="1">
          <mxGeometry width="50" height="50" relative="1" as="geometry">
            <mxPoint x="1420" y="450" as="sourcePoint" />
            <mxPoint x="1420" y="470" as="targetPoint" />
          </mxGeometry>
        </mxCell>
        <mxCell id="0heG7W7SyOvzn9v00CN0-6" value="" style="endArrow=classic;html=1;rounded=0;entryX=0.079;entryY=-0.017;entryDx=0;entryDy=0;entryPerimeter=0;" edge="1" parent="1" target="FvPo2etpDXz-omJSAiim-2">
          <mxGeometry width="50" height="50" relative="1" as="geometry">
            <mxPoint x="980" y="450" as="sourcePoint" />
            <mxPoint x="1340" y="460" as="targetPoint" />
          </mxGeometry>
        </mxCell>
        <mxCell id="0heG7W7SyOvzn9v00CN0-7" value="" style="endArrow=classic;html=1;rounded=0;entryX=0.96;entryY=-0.003;entryDx=0;entryDy=0;entryPerimeter=0;" edge="1" parent="1">
          <mxGeometry width="50" height="50" relative="1" as="geometry">
            <mxPoint x="1350" y="450" as="sourcePoint" />
            <mxPoint x="1350.2" y="470" as="targetPoint" />
          </mxGeometry>
        </mxCell>
        <mxCell id="0heG7W7SyOvzn9v00CN0-8" value="" style="endArrow=none;html=1;rounded=0;" edge="1" parent="1">
          <mxGeometry width="50" height="50" relative="1" as="geometry">
            <mxPoint x="1340" y="450" as="sourcePoint" />
            <mxPoint x="1340" y="450" as="targetPoint" />
          </mxGeometry>
        </mxCell>
        <mxCell id="0heG7W7SyOvzn9v00CN0-9" value="A" style="text;html=1;align=center;verticalAlign=middle;resizable=0;points=[];autosize=1;strokeColor=none;fillColor=none;" vertex="1" parent="1">
          <mxGeometry x="130" y="568" width="30" height="30" as="geometry" />
        </mxCell>
        <mxCell id="0heG7W7SyOvzn9v00CN0-10" value="B" style="text;html=1;align=center;verticalAlign=middle;resizable=0;points=[];autosize=1;strokeColor=none;fillColor=none;" vertex="1" parent="1">
          <mxGeometry x="260" y="568" width="30" height="30" as="geometry" />
        </mxCell>
        <mxCell id="0heG7W7SyOvzn9v00CN0-11" value="C" style="text;html=1;align=center;verticalAlign=middle;resizable=0;points=[];autosize=1;strokeColor=none;fillColor=none;" vertex="1" parent="1">
          <mxGeometry x="395" y="568" width="30" height="30" as="geometry" />
        </mxCell>
        <mxCell id="0heG7W7SyOvzn9v00CN0-12" value="D" style="text;html=1;align=center;verticalAlign=middle;resizable=0;points=[];autosize=1;strokeColor=none;fillColor=none;" vertex="1" parent="1">
          <mxGeometry x="575" y="568" width="30" height="30" as="geometry" />
        </mxCell>
        <mxCell id="0heG7W7SyOvzn9v00CN0-13" value="E" style="text;html=1;align=center;verticalAlign=middle;resizable=0;points=[];autosize=1;strokeColor=none;fillColor=none;" vertex="1" parent="1">
          <mxGeometry x="705" y="568" width="30" height="30" as="geometry" />
        </mxCell>
        <mxCell id="0heG7W7SyOvzn9v00CN0-14" value="F" style="text;html=1;align=center;verticalAlign=middle;resizable=0;points=[];autosize=1;strokeColor=none;fillColor=none;" vertex="1" parent="1">
          <mxGeometry x="835" y="568" width="30" height="30" as="geometry" />
        </mxCell>
        <mxCell id="0heG7W7SyOvzn9v00CN0-15" value="G" style="text;html=1;align=center;verticalAlign=middle;resizable=0;points=[];autosize=1;strokeColor=none;fillColor=none;" vertex="1" parent="1">
          <mxGeometry x="1015" y="568" width="30" height="30" as="geometry" />
        </mxCell>
        <mxCell id="0heG7W7SyOvzn9v00CN0-16" value="H" style="text;html=1;align=center;verticalAlign=middle;resizable=0;points=[];autosize=1;strokeColor=none;fillColor=none;" vertex="1" parent="1">
          <mxGeometry x="1150" y="568" width="30" height="30" as="geometry" />
        </mxCell>
        <mxCell id="0heG7W7SyOvzn9v00CN0-17" value="I" style="text;html=1;align=center;verticalAlign=middle;resizable=0;points=[];autosize=1;strokeColor=none;fillColor=none;" vertex="1" parent="1">
          <mxGeometry x="1275" y="568" width="30" height="30" as="geometry" />
        </mxCell>
        <mxCell id="0heG7W7SyOvzn9v00CN0-22" value="J" style="text;html=1;align=center;verticalAlign=middle;whiteSpace=wrap;rounded=0;" vertex="1" parent="1">
          <mxGeometry x="1440" y="568" width="60" height="30" as="geometry" />
        </mxCell>
        <mxCell id="0heG7W7SyOvzn9v00CN0-23" value="K" style="text;html=1;align=center;verticalAlign=middle;resizable=0;points=[];autosize=1;strokeColor=none;fillColor=none;" vertex="1" parent="1">
          <mxGeometry x="1585" y="568" width="30" height="30" as="geometry" />
        </mxCell>
        <mxCell id="0heG7W7SyOvzn9v00CN0-24" value="L" style="text;html=1;align=center;verticalAlign=middle;resizable=0;points=[];autosize=1;strokeColor=none;fillColor=none;" vertex="1" parent="1">
          <mxGeometry x="1715" y="568" width="30" height="30" as="geometry" />
        </mxCell>
      </root>
    </mxGraphModel>
  </diagram>
</mxfile>
